<?xml version="1.0" encoding="UTF-8"?>
<svg xmlns="http://www.w3.org/2000/svg" viewBox="0 0 1000 1000" width="1000" height="1000" shape-rendering="geometricPrecision">
  <g id="background"><defs><linearGradient id="g" x1="0" y1="0" x2="0" y2="1">
        <stop offset="0%" stop-color="#0B1220"/><stop offset="55%" stop-color="#102018"/><stop offset="100%" stop-color="#0A1610"/>
      </linearGradient></defs>
      <rect width="1000" height="1000" fill="url(#g)"/>
      <circle cx="80" cy="70" r="5" fill="#E8DCC4" stroke="none" stroke-width="0"/><circle cx="160" cy="40" r="3.5" fill="#E8DCC4" stroke="none" stroke-width="0"/><circle cx="250" cy="90" r="3.5" fill="#E8DCC4" stroke="none" stroke-width="0"/><circle cx="340" cy="30" r="5" fill="#E8DCC4" stroke="none" stroke-width="0"/><circle cx="420" cy="80" r="3.5" fill="#E8DCC4" stroke="none" stroke-width="0"/><circle cx="560" cy="45" r="3.5" fill="#E8DCC4" stroke="none" stroke-width="0"/><circle cx="640" cy="95" r="5" fill="#E8DCC4" stroke="none" stroke-width="0"/><circle cx="880" cy="50" r="3.5" fill="#E8DCC4" stroke="none" stroke-width="0"/><circle cx="940" cy="110" r="3.5" fill="#E8DCC4" stroke="none" stroke-width="0"/><circle cx="70" cy="160" r="5" fill="#E8DCC4" stroke="none" stroke-width="0"/><circle cx="300" cy="140" r="3.5" fill="#E8DCC4" stroke="none" stroke-width="0"/><circle cx="910" cy="200" r="3.5" fill="#E8DCC4" stroke="none" stroke-width="0"/><circle cx="180" cy="120" r="5" fill="#E8DCC4" stroke="none" stroke-width="0"/><circle cx="720" cy="35" r="3.5" fill="#E8DCC4" stroke="none" stroke-width="0"/>
      <circle cx="790" cy="150" r="72" fill="#E8DCC4" stroke="#0D0D0D" stroke-width="6"/>
      <circle cx="812" cy="142" r="56" fill="#0B1220" stroke="none" stroke-width="0"/>
      <polygon points="90,823.6 -37.050000000000026,1000 217.05,1000" fill="#0A1F14" stroke="#0D0D0D" stroke-width="5" stroke-linejoin="round"/><polygon points="90,706 -7.02000000000001,882.4 187.02,882.4" fill="#0A1F14" stroke="#0D0D0D" stroke-width="5" stroke-linejoin="round"/><polygon points="90,580 25.31999999999998,769 154.68,769" fill="#0A1F14" stroke="#0D0D0D" stroke-width="5" stroke-linejoin="round"/><rect x="80" y="992" width="20" height="28" rx="0" fill="#2B1A10" stroke="#0D0D0D" stroke-width="4"/>
      <polygon points="220,857.2 117.14999999999998,1000 322.85,1000" fill="#0D2818" stroke="#0D0D0D" stroke-width="5" stroke-linejoin="round"/><polygon points="220,762 141.45999999999998,904.8 298.54,904.8" fill="#0D2818" stroke="#0D0D0D" stroke-width="5" stroke-linejoin="round"/><polygon points="220,660 167.64,813 272.36,813" fill="#0D2818" stroke="#0D0D0D" stroke-width="5" stroke-linejoin="round"/><rect x="210" y="992" width="20" height="28" rx="0" fill="#2B1A10" stroke="#0D0D0D" stroke-width="4"/>
      <polygon points="880,840.4 765.05,1000 994.95,1000" fill="#0A1F14" stroke="#0D0D0D" stroke-width="5" stroke-linejoin="round"/><polygon points="880,734 792.22,893.6 967.78,893.6" fill="#0A1F14" stroke="#0D0D0D" stroke-width="5" stroke-linejoin="round"/><polygon points="880,620 821.48,791 938.52,791" fill="#0A1F14" stroke="#0D0D0D" stroke-width="5" stroke-linejoin="round"/><rect x="870" y="992" width="20" height="28" rx="0" fill="#2B1A10" stroke="#0D0D0D" stroke-width="4"/>
      <polygon points="980,890.8 901.35,1000 1058.65,1000" fill="#0D2818" stroke="#0D0D0D" stroke-width="5" stroke-linejoin="round"/><polygon points="980,818 919.94,927.2 1040.06,927.2" fill="#0D2818" stroke="#0D0D0D" stroke-width="5" stroke-linejoin="round"/><polygon points="980,740 939.96,857 1020.04,857" fill="#0D2818" stroke="#0D0D0D" stroke-width="5" stroke-linejoin="round"/><rect x="970" y="992" width="20" height="28" rx="0" fill="#2B1A10" stroke="#0D0D0D" stroke-width="4"/></g>
  <g id="tunic"><path d="M 430 530 L 570 530 C 590 560, 600 610, 590 650 L 410 650 C 400 610, 410 560, 430 530 Z" fill="#C9A07A" stroke="#0D0D0D" stroke-width="8" stroke-linejoin="round" stroke-linecap="round"/><path d="M 400 600 C 260 630, 120 740, 70 880 L 50 1000 L 950 1000 L 930 880 C 880 740, 740 630, 600 600 C 560 640, 440 640, 400 600 Z" fill="#9B1D20" stroke="#0D0D0D" stroke-width="8" stroke-linejoin="round" stroke-linecap="round"/><path d="M 500 640 C 420 680, 200 760, 90 1000 L 500 1000 Z" fill="#6B0F12" stroke="none" stroke-width="0" stroke-linejoin="round" stroke-linecap="round" opacity="0.45"/><path d="M 400 600 C 440 575, 560 575, 600 600 C 580 640, 420 640, 400 600 Z" fill="#C9A227" stroke="#0D0D0D" stroke-width="8" stroke-linejoin="round" stroke-linecap="round"/><path d="M 420 615 C 460 600, 540 600, 580 615" fill="none" stroke="#0D0D0D" stroke-width="6" stroke-linejoin="round" stroke-linecap="round"/><path d="M 500 660 L 500 880" fill="none" stroke="#0D0D0D" stroke-width="5" stroke-linejoin="round" stroke-linecap="round"/><path d="M 478 680 L 522 680" fill="none" stroke="#C1121F" stroke-width="4" stroke-linejoin="round" stroke-linecap="round"/><path d="M 478 720 L 522 720" fill="none" stroke="#C1121F" stroke-width="4" stroke-linejoin="round" stroke-linecap="round"/><path d="M 478 760 L 522 760" fill="none" stroke="#C1121F" stroke-width="4" stroke-linejoin="round" stroke-linecap="round"/><path d="M 478 800 L 522 800" fill="none" stroke="#C1121F" stroke-width="4" stroke-linejoin="round" stroke-linecap="round"/><path d="M 478 840 L 522 840" fill="none" stroke="#C1121F" stroke-width="4" stroke-linejoin="round" stroke-linecap="round"/><rect x="80" y="900" width="840" height="42" rx="4" fill="#6B0F12" stroke="#0D0D0D" stroke-width="6"/><rect x="470" y="892" width="60" height="56" rx="6" fill="#C9A227" stroke="#0D0D0D" stroke-width="5"/></g>
  <g id="hood"><path d="M 500 48 C 300 62, 168 200, 156 390 C 146 540, 240 628, 400 662 C 450 676, 500 680, 500 680 C 500 680, 550 676, 600 662 C 760 628, 854 540, 844 390 C 832 200, 700 62, 500 48 Z" fill="#1B5E3B" stroke="#0D0D0D" stroke-width="8" stroke-linejoin="round" stroke-linecap="round"/><path d="M 500 70 C 360 90, 250 220, 240 380 C 236 470, 300 560, 420 600" fill="none" stroke="#0F3D26" stroke-width="10" stroke-linejoin="round" stroke-linecap="round"/><ellipse cx="500" cy="398" rx="156" ry="186" fill="#2D6A4F" stroke="#0D0D0D" stroke-width="8"/><ellipse cx="500" cy="400" rx="140" ry="168" fill="#0F3D26" stroke="#0D0D0D" stroke-width="8"/><path d="M 500 48 L 470 110 L 500 95 L 530 110 Z" fill="#2D8A55" stroke="#0D0D0D" stroke-width="5" stroke-linejoin="round" stroke-linecap="round"/></g>
  <g id="face"><path d="M 500 248 C 418 248, 372 308, 364 388 C 356 470, 388 538, 448 562 C 478 576, 522 576, 552 562 C 612 538, 644 470, 636 388 C 628 308, 582 248, 500 248 Z" fill="#E6C4A0" stroke="#0D0D0D" stroke-width="8" stroke-linejoin="round" stroke-linecap="round"/><ellipse cx="500" cy="430" rx="100" ry="90" fill="#C9A07A" stroke="none" stroke-width="0" opacity="0.22"/><path d="M 408 352 C 440 348, 470 350, 488 354" fill="none" stroke="#0D0D0D" stroke-width="9" stroke-linejoin="round" stroke-linecap="round"/><path d="M 514 338 C 536 328, 564 330, 594 344" fill="none" stroke="#0D0D0D" stroke-width="9" stroke-linejoin="round" stroke-linecap="round"/><path d="M 500 390 L 478 455 L 500 462 L 522 455 Z" fill="#C9A07A" stroke="#0D0D0D" stroke-width="5" stroke-linejoin="round" stroke-linecap="round"/><path d="M 455 500 C 480 518, 530 522, 560 498" fill="none" stroke="#0D0D0D" stroke-width="7" stroke-linejoin="round" stroke-linecap="round"/></g>
  <g id="eyes"><path d="M 400 350 C 430 360, 460 360, 490 350" fill="#2A1A14" stroke="none" stroke-width="0" stroke-linejoin="round" stroke-linecap="round" opacity="0.35"/><path d="M 510 350 C 540 360, 570 360, 600 350" fill="#2A1A14" stroke="none" stroke-width="0" stroke-linejoin="round" stroke-linecap="round" opacity="0.35"/><ellipse cx="440" cy="368" rx="32" ry="22" fill="#F4EDE0" stroke="#0D0D0D" stroke-width="8"/><ellipse cx="560" cy="368" rx="32" ry="22" fill="#F4EDE0" stroke="#0D0D0D" stroke-width="8"/><circle cx="440" cy="370" r="14" fill="#0F1A14" stroke="#0D0D0D" stroke-width="8"/><circle cx="560" cy="370" r="14" fill="#0F1A14" stroke="#0D0D0D" stroke-width="8"/><circle cx="442" cy="372" r="7" fill="#0D0D0D" stroke="none" stroke-width="0"/><circle cx="562" cy="372" r="7" fill="#0D0D0D" stroke="none" stroke-width="0"/><circle cx="432" cy="362" r="5" fill="#FFFFFF" stroke="none" stroke-width="0"/><circle cx="552" cy="362" r="5" fill="#FFFFFF" stroke="none" stroke-width="0"/></g>
  <g id="weapon">
        <path d="M 220 880 C 200 820, 240 780, 300 800 C 340 814, 350 860, 330 910 C 300 950, 240 940, 220 880 Z" fill="#E6C4A0" stroke="#0D0D0D" stroke-width="8" stroke-linejoin="round" stroke-linecap="round"/>
        <path d="M 780 880 C 800 820, 760 780, 700 800 C 660 814, 650 860, 670 910 C 700 950, 760 940, 780 880 Z" fill="#E6C4A0" stroke="#0D0D0D" stroke-width="8" stroke-linejoin="round" stroke-linecap="round"/>
        <path d="M 250 820 L 250 780" fill="none" stroke="#E6C4A0" stroke-width="14" stroke-linejoin="round" stroke-linecap="round"/>
        <path d="M 280 818 L 286 772" fill="none" stroke="#E6C4A0" stroke-width="12" stroke-linejoin="round" stroke-linecap="round"/>
        <path d="M 750 820 L 750 780" fill="none" stroke="#E6C4A0" stroke-width="14" stroke-linejoin="round" stroke-linecap="round"/>
        <path d="M 720 818 L 714 772" fill="none" stroke="#E6C4A0" stroke-width="12" stroke-linejoin="round" stroke-linecap="round"/>
      </g>
  <g id="accessory">
        <ellipse cx="358" cy="430" rx="16" ry="22" fill="#E6C4A0" stroke="#0D0D0D" stroke-width="8"/>
        <circle cx="348" cy="455" r="14" fill="none" stroke="#C9A227" stroke-width="6"/>
        <circle cx="348" cy="472" r="5" fill="#C9A227" stroke="#0D0D0D" stroke-width="3"/>
      </g>
  
</svg>
