<?xml version="1.0" encoding="UTF-8"?>
<svg xmlns="http://www.w3.org/2000/svg" viewBox="0 0 1000 1000" width="1000" height="1000" shape-rendering="geometricPrecision">
  <g id="background"><defs><linearGradient id="g" x1="0" y1="0" x2="0" y2="1">
        <stop offset="0%" stop-color="#8FBF7A"/><stop offset="50%" stop-color="#3D6B45"/><stop offset="100%" stop-color="#1E3D28"/>
      </linearGradient></defs>
      <rect width="1000" height="1000" fill="url(#g)"/>
      <line x1="-20" y1="200" x2="80" y2="1000" stroke="#E8C547" stroke-width="40" opacity="0.18"/>
      <line x1="200" y1="0" x2="280" y2="1000" stroke="#E8C547" stroke-width="50" opacity="0.12"/>
      <line x1="820" y1="0" x2="760" y2="1000" stroke="#E8C547" stroke-width="36" opacity="0.14"/>
      <path d="M40 860 C 80 780, 140 800, 120 900 C 90 940, 50 920, 40 860 Z" fill="#2D6A4F" stroke="#0D0D0D" stroke-width="5" stroke-linejoin="round" stroke-linecap="round"/>
      <path d="M160 900 C 200 800, 260 820, 230 940 C 190 970, 150 950, 160 900 Z" fill="#40916C" stroke="#0D0D0D" stroke-width="5" stroke-linejoin="round" stroke-linecap="round"/>
      <path d="M880 880 C 920 780, 980 800, 950 940 C 910 970, 860 940, 880 880 Z" fill="#2D6A4F" stroke="#0D0D0D" stroke-width="5" stroke-linejoin="round" stroke-linecap="round"/>
      <circle cx="90" cy="920" r="22" fill="#C9A227" stroke="#0D0D0D" stroke-width="4"/>
      <circle cx="130" cy="950" r="16" fill="#9B1D20" stroke="#0D0D0D" stroke-width="4"/>
      <circle cx="900" cy="940" r="18" fill="#C9A227" stroke="#0D0D0D" stroke-width="4"/></g>
  <g id="tunic"><path d="M 430 530 L 570 530 C 590 560, 600 610, 590 650 L 410 650 C 400 610, 410 560, 430 530 Z" fill="#C9A07A" stroke="#0D0D0D" stroke-width="8" stroke-linejoin="round" stroke-linecap="round"/><path d="M 400 600 C 260 630, 120 740, 70 880 L 50 1000 L 950 1000 L 930 880 C 880 740, 740 630, 600 600 C 560 640, 440 640, 400 600 Z" fill="#C4A574" stroke="#0D0D0D" stroke-width="8" stroke-linejoin="round" stroke-linecap="round"/><path d="M 500 640 C 420 680, 200 760, 90 1000 L 500 1000 Z" fill="#A38458" stroke="none" stroke-width="0" stroke-linejoin="round" stroke-linecap="round" opacity="0.45"/><path d="M 400 600 C 440 575, 560 575, 600 600 C 580 640, 420 640, 400 600 Z" fill="#6B4226" stroke="#0D0D0D" stroke-width="8" stroke-linejoin="round" stroke-linecap="round"/><path d="M 420 615 C 460 600, 540 600, 580 615" fill="none" stroke="#0D0D0D" stroke-width="6" stroke-linejoin="round" stroke-linecap="round"/><path d="M 500 660 L 500 880" fill="none" stroke="#0D0D0D" stroke-width="5" stroke-linejoin="round" stroke-linecap="round"/><path d="M 478 680 L 522 680" fill="none" stroke="#D4B896" stroke-width="4" stroke-linejoin="round" stroke-linecap="round"/><path d="M 478 720 L 522 720" fill="none" stroke="#D4B896" stroke-width="4" stroke-linejoin="round" stroke-linecap="round"/><path d="M 478 760 L 522 760" fill="none" stroke="#D4B896" stroke-width="4" stroke-linejoin="round" stroke-linecap="round"/><path d="M 478 800 L 522 800" fill="none" stroke="#D4B896" stroke-width="4" stroke-linejoin="round" stroke-linecap="round"/><path d="M 478 840 L 522 840" fill="none" stroke="#D4B896" stroke-width="4" stroke-linejoin="round" stroke-linecap="round"/><rect x="80" y="900" width="840" height="42" rx="4" fill="#A38458" stroke="#0D0D0D" stroke-width="6"/><rect x="470" y="892" width="60" height="56" rx="6" fill="#6B4226" stroke="#0D0D0D" stroke-width="5"/></g>
  <g id="hood"><path d="M 500 48 C 300 62, 168 200, 156 390 C 146 540, 240 628, 400 662 C 450 676, 500 680, 500 680 C 500 680, 550 676, 600 662 C 760 628, 854 540, 844 390 C 832 200, 700 62, 500 48 Z" fill="#E8DCC4" stroke="#0D0D0D" stroke-width="8" stroke-linejoin="round" stroke-linecap="round"/><path d="M 500 70 C 360 90, 250 220, 240 380 C 236 470, 300 560, 420 600" fill="none" stroke="#C9B99A" stroke-width="10" stroke-linejoin="round" stroke-linecap="round"/><ellipse cx="500" cy="398" rx="156" ry="186" fill="#6B4226" stroke="#0D0D0D" stroke-width="8"/><ellipse cx="500" cy="400" rx="140" ry="168" fill="#C9B99A" stroke="#0D0D0D" stroke-width="8"/><path d="M 500 48 L 470 110 L 500 95 L 530 110 Z" fill="#F4EDE0" stroke="#0D0D0D" stroke-width="5" stroke-linejoin="round" stroke-linecap="round"/><path d="M 430 650 C 460 700, 540 700, 570 650" fill="none" stroke="#6B4226" stroke-width="10" stroke-linejoin="round" stroke-linecap="round"/><circle cx="500" cy="705" r="12" fill="#6B4226" stroke="#0D0D0D" stroke-width="4"/></g>
  <g id="face"><path d="M 500 248 C 418 248, 372 308, 364 388 C 356 470, 388 538, 448 562 C 478 576, 522 576, 552 562 C 612 538, 644 470, 636 388 C 628 308, 582 248, 500 248 Z" fill="#E6C4A0" stroke="#0D0D0D" stroke-width="8" stroke-linejoin="round" stroke-linecap="round"/><ellipse cx="500" cy="430" rx="100" ry="90" fill="#C9A07A" stroke="none" stroke-width="0" opacity="0.22"/><path d="M 400 350 C 438 342, 470 346, 490 356" fill="none" stroke="#0D0D0D" stroke-width="11" stroke-linejoin="round" stroke-linecap="round"/><path d="M 510 356 C 530 346, 562 342, 600 350" fill="none" stroke="#0D0D0D" stroke-width="11" stroke-linejoin="round" stroke-linecap="round"/><path d="M 420 330 L 470 338" fill="none" stroke="#0D0D0D" stroke-width="4" stroke-linejoin="round" stroke-linecap="round"/><path d="M 530 338 L 580 330" fill="none" stroke="#0D0D0D" stroke-width="4" stroke-linejoin="round" stroke-linecap="round"/><path d="M 500 390 L 478 455 L 500 462 L 522 455 Z" fill="#C9A07A" stroke="#0D0D0D" stroke-width="5" stroke-linejoin="round" stroke-linecap="round"/><path d="M 458 508 L 542 508" fill="none" stroke="#0D0D0D" stroke-width="7" stroke-linejoin="round" stroke-linecap="round"/><path d="M 450 522 C 480 530, 520 530, 550 522" fill="none" stroke="#C9A07A" stroke-width="4" stroke-linejoin="round" stroke-linecap="round"/><path d="M 410 430 L 448 438" fill="none" stroke="#C9A07A" stroke-width="4" stroke-linejoin="round" stroke-linecap="round"/><path d="M 590 430 L 552 438" fill="none" stroke="#C9A07A" stroke-width="4" stroke-linejoin="round" stroke-linecap="round"/><path d="M 460 300 L 500 308 L 540 300" fill="none" stroke="#C9A07A" stroke-width="4" stroke-linejoin="round" stroke-linecap="round"/></g>
  <g id="eyes"><ellipse cx="440" cy="368" rx="36" ry="28" fill="#F4EDE0" stroke="#0D0D0D" stroke-width="8"/><circle cx="440" cy="370" r="16" fill="#1B3A2A" stroke="#0D0D0D" stroke-width="8"/><circle cx="442" cy="372" r="8" fill="#0D0D0D" stroke="none" stroke-width="0"/><circle cx="432" cy="362" r="5" fill="#FFFFFF" stroke="none" stroke-width="0"/><path d="M 520 330 C 540 318, 600 318, 622 345 C 630 370, 610 410, 560 418 C 525 422, 512 390, 520 330 Z" fill="#3A2A1A" stroke="#0D0D0D" stroke-width="8" stroke-linejoin="round" stroke-linecap="round"/><path d="M 530 340 L 610 400" fill="none" stroke="#0D0D0D" stroke-width="5" stroke-linejoin="round" stroke-linecap="round"/><path d="M 500 300 C 560 290, 640 320, 650 380" fill="none" stroke="#2B1A10" stroke-width="8" stroke-linejoin="round" stroke-linecap="round"/></g>
  <g id="weapon">
        <path d="M 220 880 C 200 820, 240 780, 300 800 C 340 814, 350 860, 330 910 C 300 950, 240 940, 220 880 Z" fill="#E6C4A0" stroke="#0D0D0D" stroke-width="8" stroke-linejoin="round" stroke-linecap="round"/>
        <path d="M 780 880 C 800 820, 760 780, 700 800 C 660 814, 650 860, 670 910 C 700 950, 760 940, 780 880 Z" fill="#E6C4A0" stroke="#0D0D0D" stroke-width="8" stroke-linejoin="round" stroke-linecap="round"/>
        <path d="M 250 820 L 250 780" fill="none" stroke="#E6C4A0" stroke-width="14" stroke-linejoin="round" stroke-linecap="round"/>
        <path d="M 280 818 L 286 772" fill="none" stroke="#E6C4A0" stroke-width="12" stroke-linejoin="round" stroke-linecap="round"/>
        <path d="M 750 820 L 750 780" fill="none" stroke="#E6C4A0" stroke-width="14" stroke-linejoin="round" stroke-linecap="round"/>
        <path d="M 720 818 L 714 772" fill="none" stroke="#E6C4A0" stroke-width="12" stroke-linejoin="round" stroke-linecap="round"/>
      </g>
  
  
</svg>
