<?xml version="1.0" encoding="UTF-8"?>
<svg xmlns="http://www.w3.org/2000/svg" viewBox="0 0 1000 1000" width="1000" height="1000" shape-rendering="geometricPrecision">
  <g id="background"><rect width="1000" height="1000" fill="#1A140C"/>
      <rect x="40" y="40" width="920" height="920" rx="12" fill="#2A2014" stroke="#C9A227" stroke-width="10"/>
      <rect x="80" y="120" width="180" height="70" rx="6" fill="#C9A227" stroke="#0D0D0D" stroke-width="6"/><rect x="90" y="128" width="160" height="18" rx="0" fill="#E8C547" stroke="none" stroke-width="0"/><rect x="300" y="120" width="180" height="70" rx="6" fill="#C9A227" stroke="#0D0D0D" stroke-width="6"/><rect x="310" y="128" width="160" height="18" rx="0" fill="#E8C547" stroke="none" stroke-width="0"/><rect x="520" y="120" width="180" height="70" rx="6" fill="#C9A227" stroke="#0D0D0D" stroke-width="6"/><rect x="530" y="128" width="160" height="18" rx="0" fill="#E8C547" stroke="none" stroke-width="0"/><rect x="740" y="120" width="180" height="70" rx="6" fill="#C9A227" stroke="#0D0D0D" stroke-width="6"/><rect x="750" y="128" width="160" height="18" rx="0" fill="#E8C547" stroke="none" stroke-width="0"/>
      <circle cx="140" cy="280" r="48" fill="#C9A227" stroke="#0D0D0D" stroke-width="6"/><circle cx="140" cy="280" r="32" fill="#E8C547" stroke="#0D0D0D" stroke-width="3"/><path d="M140 264 L 146 278 L 158 280 L 148 288 L 150 300 L 140 292 L 130 300 L 132 288 L 122 280 L 134 278 Z" fill="#8B6914" stroke="none" stroke-width="0" stroke-linejoin="round" stroke-linecap="round"/><circle cx="420" cy="280" r="48" fill="#C9A227" stroke="#0D0D0D" stroke-width="6"/><circle cx="420" cy="280" r="32" fill="#E8C547" stroke="#0D0D0D" stroke-width="3"/><path d="M420 264 L 426 278 L 438 280 L 428 288 L 430 300 L 420 292 L 410 300 L 412 288 L 402 280 L 414 278 Z" fill="#8B6914" stroke="none" stroke-width="0" stroke-linejoin="round" stroke-linecap="round"/><circle cx="700" cy="280" r="48" fill="#C9A227" stroke="#0D0D0D" stroke-width="6"/><circle cx="700" cy="280" r="32" fill="#E8C547" stroke="#0D0D0D" stroke-width="3"/><path d="M700 264 L 706 278 L 718 280 L 708 288 L 710 300 L 700 292 L 690 300 L 692 288 L 682 280 L 694 278 Z" fill="#8B6914" stroke="none" stroke-width="0" stroke-linejoin="round" stroke-linecap="round"/><circle cx="140" cy="500" r="48" fill="#C9A227" stroke="#0D0D0D" stroke-width="6"/><circle cx="140" cy="500" r="32" fill="#E8C547" stroke="#0D0D0D" stroke-width="3"/><path d="M140 484 L 146 498 L 158 500 L 148 508 L 150 520 L 140 512 L 130 520 L 132 508 L 122 500 L 134 498 Z" fill="#8B6914" stroke="none" stroke-width="0" stroke-linejoin="round" stroke-linecap="round"/><circle cx="420" cy="500" r="48" fill="#C9A227" stroke="#0D0D0D" stroke-width="6"/><circle cx="420" cy="500" r="32" fill="#E8C547" stroke="#0D0D0D" stroke-width="3"/><path d="M420 484 L 426 498 L 438 500 L 428 508 L 430 520 L 420 512 L 410 520 L 412 508 L 402 500 L 414 498 Z" fill="#8B6914" stroke="none" stroke-width="0" stroke-linejoin="round" stroke-linecap="round"/><circle cx="700" cy="500" r="48" fill="#C9A227" stroke="#0D0D0D" stroke-width="6"/><circle cx="700" cy="500" r="32" fill="#E8C547" stroke="#0D0D0D" stroke-width="3"/><path d="M700 484 L 706 498 L 718 500 L 708 508 L 710 520 L 700 512 L 690 520 L 692 508 L 682 500 L 694 498 Z" fill="#8B6914" stroke="none" stroke-width="0" stroke-linejoin="round" stroke-linecap="round"/>
      <rect x="80" y="820" width="840" height="90" rx="8" fill="#C9A227" stroke="#0D0D0D" stroke-width="6"/></g>
  <g id="tunic"><path d="M 430 530 L 570 530 C 590 560, 600 610, 590 650 L 410 650 C 400 610, 410 560, 430 530 Z" fill="#C9A07A" stroke="#0D0D0D" stroke-width="8" stroke-linejoin="round" stroke-linecap="round"/><path d="M 400 600 C 260 630, 120 740, 70 880 L 50 1000 L 950 1000 L 930 880 C 880 740, 740 630, 600 600 C 560 640, 440 640, 400 600 Z" fill="#6B4226" stroke="#0D0D0D" stroke-width="8" stroke-linejoin="round" stroke-linecap="round"/><path d="M 500 640 C 420 680, 200 760, 90 1000 L 500 1000 Z" fill="#4A2C18" stroke="none" stroke-width="0" stroke-linejoin="round" stroke-linecap="round" opacity="0.45"/><path d="M 400 600 C 440 575, 560 575, 600 600 C 580 640, 420 640, 400 600 Z" fill="#2B1810" stroke="#0D0D0D" stroke-width="8" stroke-linejoin="round" stroke-linecap="round"/><path d="M 420 615 C 460 600, 540 600, 580 615" fill="none" stroke="#0D0D0D" stroke-width="6" stroke-linejoin="round" stroke-linecap="round"/><path d="M 500 660 L 500 880" fill="none" stroke="#0D0D0D" stroke-width="5" stroke-linejoin="round" stroke-linecap="round"/><path d="M 478 680 L 522 680" fill="none" stroke="#8B5A2B" stroke-width="4" stroke-linejoin="round" stroke-linecap="round"/><path d="M 478 720 L 522 720" fill="none" stroke="#8B5A2B" stroke-width="4" stroke-linejoin="round" stroke-linecap="round"/><path d="M 478 760 L 522 760" fill="none" stroke="#8B5A2B" stroke-width="4" stroke-linejoin="round" stroke-linecap="round"/><path d="M 478 800 L 522 800" fill="none" stroke="#8B5A2B" stroke-width="4" stroke-linejoin="round" stroke-linecap="round"/><path d="M 478 840 L 522 840" fill="none" stroke="#8B5A2B" stroke-width="4" stroke-linejoin="round" stroke-linecap="round"/><rect x="80" y="900" width="840" height="42" rx="4" fill="#4A2C18" stroke="#0D0D0D" stroke-width="6"/><rect x="470" y="892" width="60" height="56" rx="6" fill="#2B1810" stroke="#0D0D0D" stroke-width="5"/></g>
  <g id="hood"><path d="M 500 48 C 300 62, 168 200, 156 390 C 146 540, 240 628, 400 662 C 450 676, 500 680, 500 680 C 500 680, 550 676, 600 662 C 760 628, 854 540, 844 390 C 832 200, 700 62, 500 48 Z" fill="#9B1D20" stroke="#0D0D0D" stroke-width="8" stroke-linejoin="round" stroke-linecap="round"/><path d="M 500 70 C 360 90, 250 220, 240 380 C 236 470, 300 560, 420 600" fill="none" stroke="#5C0E10" stroke-width="10" stroke-linejoin="round" stroke-linecap="round"/><ellipse cx="500" cy="398" rx="156" ry="186" fill="#C1121F" stroke="#0D0D0D" stroke-width="8"/><ellipse cx="500" cy="400" rx="140" ry="168" fill="#5C0E10" stroke="#0D0D0D" stroke-width="8"/><path d="M 500 48 L 470 110 L 500 95 L 530 110 Z" fill="#D64545" stroke="#0D0D0D" stroke-width="5" stroke-linejoin="round" stroke-linecap="round"/></g>
  <g id="face"><path d="M 500 248 C 418 248, 372 308, 364 388 C 356 470, 388 538, 448 562 C 478 576, 522 576, 552 562 C 612 538, 644 470, 636 388 C 628 308, 582 248, 500 248 Z" fill="#E6C4A0" stroke="#0D0D0D" stroke-width="8" stroke-linejoin="round" stroke-linecap="round"/><ellipse cx="500" cy="430" rx="100" ry="90" fill="#C9A07A" stroke="none" stroke-width="0" opacity="0.22"/><path d="M 408 360 C 438 368, 468 366, 488 358" fill="none" stroke="#0D0D0D" stroke-width="9" stroke-linejoin="round" stroke-linecap="round"/><path d="M 512 348 C 534 338, 562 338, 592 348" fill="none" stroke="#0D0D0D" stroke-width="9" stroke-linejoin="round" stroke-linecap="round"/><path d="M 500 390 L 478 455 L 500 462 L 522 455 Z" fill="#C9A07A" stroke="#0D0D0D" stroke-width="5" stroke-linejoin="round" stroke-linecap="round"/><path d="M 455 500 C 480 518, 530 522, 560 498" fill="none" stroke="#0D0D0D" stroke-width="7" stroke-linejoin="round" stroke-linecap="round"/></g>
  <g id="eyes"><path d="M 400 350 C 430 360, 460 360, 490 350" fill="#2A1A14" stroke="none" stroke-width="0" stroke-linejoin="round" stroke-linecap="round" opacity="0.35"/><path d="M 510 350 C 540 360, 570 360, 600 350" fill="#2A1A14" stroke="none" stroke-width="0" stroke-linejoin="round" stroke-linecap="round" opacity="0.35"/><ellipse cx="560" cy="368" rx="32" ry="22" fill="#F4EDE0" stroke="#0D0D0D" stroke-width="8"/><circle cx="560" cy="370" r="14" fill="#0F1A14" stroke="#0D0D0D" stroke-width="8"/><circle cx="562" cy="372" r="7" fill="#0D0D0D" stroke="none" stroke-width="0"/><circle cx="552" cy="362" r="5" fill="#FFFFFF" stroke="none" stroke-width="0"/><path d="M 410 368 C 430 380, 450 380, 470 368" fill="none" stroke="#0D0D0D" stroke-width="8" stroke-linejoin="round" stroke-linecap="round"/></g>
  <g id="weapon">
        <path d="M 860 80 L 900 980" fill="none" stroke="#6B4226" stroke-width="20" stroke-linejoin="round" stroke-linecap="round"/>
        <path d="M 860 80 L 900 980" fill="none" stroke="#0D0D0D" stroke-width="7" stroke-linejoin="round" stroke-linecap="round"/>
        <circle cx="852" cy="70" r="28" fill="#3A2A1A" stroke="#0D0D0D" stroke-width="6"/>
        <circle cx="852" cy="70" r="14" fill="#C9A227" stroke="#0D0D0D" stroke-width="4"/>
        <path d="M 830 140 C 870 160, 890 200, 870 230" fill="none" stroke="#3A2A1A" stroke-width="8" stroke-linejoin="round" stroke-linecap="round"/>
      </g>
  <g id="accessory">
        <path d="M 620 70 C 720 20, 820 40, 800 140 C 760 90, 700 80, 640 120 C 660 70, 640 70, 620 70 Z" fill="#9B1D20" stroke="#0D0D0D" stroke-width="8" stroke-linejoin="round" stroke-linecap="round"/>
        <path d="M 640 90 C 700 50, 760 70, 770 110" fill="none" stroke="#C9A227" stroke-width="4" stroke-linejoin="round" stroke-linecap="round"/>
        <path d="M 630 100 L 780 80" fill="none" stroke="#0D0D0D" stroke-width="4" stroke-linejoin="round" stroke-linecap="round"/>
      </g>
  
</svg>
